<svg class="marks" width="1129" height="396" viewBox="0 0 1129 396" version="1.1" xmlns="http://www.w3.org/2000/svg" xmlns:xlink="http://www.w3.org/1999/xlink"><g transform="translate(77,29)"><g class="mark-group role-frame root"><g transform="translate(0,0)"><path class="background" d="M0.5,0.5h1000v300h-1000Z" style="fill: none; stroke: #ddd;"></path><g><g class="mark-group role-axis"><g transform="translate(0.5,0.5)"><path class="background" d="M0,0h0v0h0Z" style="pointer-events: none; fill: none;"></path><g><g class="mark-rule role-axis-grid" style="pointer-events: none;"><line transform="translate(0,285)" x2="1000" y2="0" style="fill: none; stroke: #ddd; stroke-width: 1; opacity: 1;"></line><line transform="translate(0,229)" x2="1000" y2="0" style="fill: none; stroke: #ddd; stroke-width: 1; opacity: 1;"></line><line transform="translate(0,172)" x2="1000" y2="0" style="fill: none; stroke: #ddd; stroke-width: 1; opacity: 1;"></line><line transform="translate(0,121)" x2="1000" y2="0" style="fill: none; stroke: #ddd; stroke-width: 1; opacity: 1;"></line><line transform="translate(0,64)" x2="1000" y2="0" style="fill: none; stroke: #ddd; stroke-width: 1; opacity: 1;"></line><line transform="translate(0,9)" x2="1000" y2="0" style="fill: none; stroke: #ddd; stroke-width: 1; opacity: 1;"></line></g></g></g></g><g class="mark-rect role-mark layer_0_marks"><path d="M0.30674846625765895,40.25412960609913h5.521472392638037v214.00254129606097h-5.521472392638037Z" style="fill: grey;"></path><path d="M6.441717791411033,0h5.521472392638037v276.21346886912323h-5.521472392638037Z" style="fill: grey;"></path><path d="M12.576687116564408,74.94282083862768h5.521472392638037v221.3977128335451h-5.521472392638037Z" style="fill: grey;"></path><path d="M18.711656441717782,96.89961880559085h5.521472392638037v175.65438373570524h-5.521472392638037Z" style="fill: grey;"></path><path d="M24.846625766871156,74.94282083862768h5.521472392638037v199.44091486658195h-5.521472392638037Z" style="fill: grey;"></path><path d="M30.98159509202453,47.573062261753506h5.521472392638037v214.00254129606097h-5.521472392638037Z" style="fill: grey;"></path><path d="M37.116564417177905,42.08386277001273h5.521472392638037v241.4485387547649h-5.521472392638037Z" style="fill: grey;"></path><path d="M43.251533742331276,49.40279542566711h5.521472392638037v190.21601016518423h-5.521472392638037Z" style="fill: grey;"></path><path d="M49.386503067484654,27.445997458703914h5.521472392638037v226.81067344345618h-5.521472392638037Z" style="fill: grey;"></path><path d="M55.52147239263803,56.72172808132149h5.521472392638037v215.8322744599746h-5.521472392638037Z" style="fill: grey;"></path><path d="M61.6564417177914,32.93519695044472h5.521472392638037v228.64040660736975h-5.521472392638037Z" style="fill: grey;"></path><path d="M67.79141104294477,29.275730622617573h5.521472392638037v224.98094027954252h-5.521472392638037Z" style="fill: grey;"></path><path d="M73.92638036809815,65.79415501905973h5.521472392638037v199.44091486658195h-5.521472392638037Z" style="fill: grey;"></path><path d="M80.06134969325153,36.59466327827192h5.521472392638037v232.29987293519696h-5.521472392638037Z" style="fill: grey;"></path><path d="M86.19631901840489,43.913595933926274h5.521472392638037v239.61880559085137h-5.521472392638037Z" style="fill: grey;"></path><path d="M92.33128834355827,62.210927573062264h5.521472392638037v181.06734434561625h-5.521472392638037Z" style="fill: grey;"></path><path d="M98.46625766871165,23.78653113087671h5.521472392638037v228.64040660736978h-5.521472392638037Z" style="fill: grey;"></path><path d="M104.60122699386503,23.78653113087671h5.521472392638037v263.40533672172813h-5.521472392638037Z" style="fill: grey;"></path><path d="M110.7361963190184,40.25412960609913h5.521472392638037v248.76747141041932h-5.521472392638037Z" style="fill: grey;"></path><path d="M116.87116564417177,38.424396442185525h5.521472392638037v230.47013977128336h-5.521472392638037Z" style="fill: grey;"></path><path d="M123.00613496932515,47.573062261753506h5.521472392638037v164.5997458703939h-5.521472392638037Z" style="fill: grey;"></path><path d="M129.1411042944785,34.76493011435832h5.521472392638037v237.78907242693776h-5.521472392638037Z" style="fill: grey;"></path><path d="M135.2760736196319,106.04828462515883h5.521472392638037v113.44345616264295h-5.521472392638037Z" style="fill: grey;"></path><path d="M141.41104294478527,43.913595933926274h5.521472392638037v204.85387547649304h-5.521472392638037Z" style="fill: grey;"></path><path d="M147.54601226993864,76.77255400254128h5.521472392638037v179.31385006353239h-5.521472392638037Z" style="fill: grey;"></path><path d="M153.68098159509202,5.489199491740806h5.521472392638037v294.5108005082592h-5.521472392638037Z" style="fill: grey;"></path><path d="M159.8159509202454,84.09148665819569h5.521472392638037v142.71918678526046h-5.521472392638037Z" style="fill: grey;"></path><path d="M165.95092024539878,42.08386277001273h5.521472392638037v226.81067344345615h-5.521472392638037Z" style="fill: grey;"></path><path d="M172.08588957055213,38.424396442185525h5.521472392638037v215.83227445997457h-5.521472392638037Z" style="fill: grey;"></path><path d="M178.2208588957055,29.275730622617573h5.521472392638037v226.8106734434561h-5.521472392638037Z" style="fill: grey;"></path><path d="M184.35582822085888,31.105463786531118h5.521472392638037v234.12960609911056h-5.521472392638037Z" style="fill: grey;"></path><path d="M190.49079754601226,38.424396442185525h5.521472392638037v239.6188055908513h-5.521472392638037Z" style="fill: grey;"></path><path d="M196.62576687116564,38.424396442185525h5.521472392638037v204.853875476493h-5.521472392638037Z" style="fill: grey;"></path><path d="M202.76073619631902,65.79415501905973h5.521472392638037v161.01651842439642h-5.521472392638037Z" style="fill: grey;"></path><path d="M208.8957055214724,67.6238881829733h5.521472392638037v137.22998729351968h-5.521472392638037Z" style="fill: grey;"></path><path d="M215.03067484662577,36.59466327827192h5.521472392638037v203.02414231257941h-5.521472392638037Z" style="fill: grey;"></path><path d="M221.16564417177915,62.210927573062264h5.521472392638037v175.57814485387547h-5.521472392638037Z" style="fill: grey;"></path><path d="M227.3006134969325,53.06226175349428h5.521472392638037v204.853875476493h-5.521472392638037Z" style="fill: grey;"></path><path d="M233.43558282208588,95.06988564167725h5.521472392638037v184.8030495552732h-5.521472392638037Z" style="fill: grey;"></path><path d="M239.57055214723925,51.23252858958068h5.521472392638037v184.72681067344348h-5.521472392638037Z" style="fill: grey;"></path><path d="M245.70552147239263,56.72172808132149h5.521472392638037v164.5997458703939h-5.521472392638037Z" style="fill: grey;"></path><path d="M251.840490797546,47.573062261753506h5.521472392638037v201.1944091486658h-5.521472392638037Z" style="fill: grey;"></path><path d="M257.97546012269936,73.11308767471411h5.521472392638037v182.97331639135956h-5.521472392638037Z" style="fill: grey;"></path><path d="M264.11042944785277,32.93519695044472h5.521472392638037v237.78907242693776h-5.521472392638037Z" style="fill: grey;"></path><path d="M270.2453987730061,34.76493011435832h5.521472392638037v203.02414231257941h-5.521472392638037Z" style="fill: grey;"></path><path d="M276.3803680981595,45.743329097839904h5.521472392638037v195.70520965692504h-5.521472392638037Z" style="fill: grey;"></path><path d="M282.5153374233129,67.6238881829733h5.521472392638037v192.12198221092757h-5.521472392638037Z" style="fill: grey;"></path><path d="M288.6503067484663,78.60228716645489h5.521472392638037v162.84625158831005h-5.521472392638037Z" style="fill: grey;"></path><path d="M294.7852760736196,34.76493011435832h5.521472392638037v228.64040660736975h-5.521472392638037Z" style="fill: grey;"></path><path d="M300.920245398773,63.96442185514613h5.521472392638037v197.61118170266835h-5.521472392638037Z" style="fill: grey;"></path><path d="M307.0552147239264,51.23252858958068h5.521472392638037v177.40787801778907h-5.521472392638037Z" style="fill: grey;"></path><path d="M313.19018404907973,78.60228716645489h5.521472392638037v171.99491740787803h-5.521472392638037Z" style="fill: grey;"></path><path d="M319.32515337423314,78.60228716645489h5.521472392638037v150.03811944091487h-5.521472392638037Z" style="fill: grey;"></path><path d="M325.4601226993865,53.06226175349428h5.521472392638037v193.87547649301143h-5.521472392638037Z" style="fill: grey;"></path><path d="M331.5950920245399,74.94282083862768h5.521472392638037v179.3138500635324h-5.521472392638037Z" style="fill: grey;"></path><path d="M337.73006134969324,85.9212198221093h5.521472392638037v184.8030495552732h-5.521472392638037Z" style="fill: grey;"></path><path d="M343.8650306748466,40.25412960609913h5.521472392638037v195.70520965692504h-5.521472392638037Z" style="fill: grey;"></path><path d="M350,62.210927573062264h5.521472392638037v181.06734434561625h-5.521472392638037Z" style="fill: grey;"></path><path d="M356.13496932515335,47.573062261753506h5.521472392638037v160.94027954256669h-5.521472392638037Z" style="fill: grey;"></path><path d="M362.26993865030676,47.573062261753506h5.521472392638037v210.34307496823376h-5.521472392638037Z" style="fill: grey;"></path><path d="M368.4049079754601,51.23252858958068h5.521472392638037v184.72681067344348h-5.521472392638037Z" style="fill: grey;"></path><path d="M374.5398773006135,45.743329097839904h5.521472392638037v212.17280813214737h-5.521472392638037Z" style="fill: grey;"></path><path d="M380.67484662576686,56.72172808132149h5.521472392638037v210.3430749682338h-5.521472392638037Z" style="fill: grey;"></path><path d="M386.80981595092027,74.94282083862768h5.521472392638037v150.03811944091487h-5.521472392638037Z" style="fill: grey;"></path><path d="M392.9447852760736,71.2833545108005h5.521472392638037v199.44091486658198h-5.521472392638037Z" style="fill: grey;"></path><path d="M399.07975460122697,93.24015247776367h5.521472392638037v148.20838627700127h-5.521472392638037Z" style="fill: grey;"></path><path d="M405.2147239263804,65.79415501905973h5.521472392638037v175.6543837357052h-5.521472392638037Z" style="fill: grey;"></path><path d="M411.3496932515337,29.275730622617573h5.521472392638037v228.6404066073697h-5.521472392638037Z" style="fill: grey;"></path><path d="M417.4846625766871,40.25412960609913h5.521472392638037v188.38627700127063h-5.521472392638037Z" style="fill: grey;"></path><path d="M423.6196319018405,60.38119440914866h5.521472392638037v192.04574332909783h-5.521472392638037Z" style="fill: grey;"></path><path d="M429.7546012269939,31.105463786531118h5.521472392638037v226.81067344345615h-5.521472392638037Z" style="fill: grey;"></path><path d="M435.88957055214723,87.75095298602287h5.521472392638037v188.46251588310037h-5.521472392638037Z" style="fill: grey;"></path><path d="M442.02453987730064,63.96442185514613h5.521472392638037v192.12198221092754h-5.521472392638037Z" style="fill: grey;"></path><path d="M448.159509202454,73.11308767471411h5.521472392638037v175.6543837357052h-5.521472392638037Z" style="fill: grey;"></path><path d="M454.29447852760734,85.9212198221093h5.521472392638037v195.78144853875474h-5.521472392638037Z" style="fill: grey;"></path><path d="M460.42944785276075,78.60228716645489h5.521472392638037v179.31385006353239h-5.521472392638037Z" style="fill: grey;"></path><path d="M466.5644171779141,58.55146124523506h5.521472392638037v117.02668360864041h-5.521472392638037Z" style="fill: grey;"></path><path d="M472.6993865030675,58.55146124523506h5.521472392638037v210.34307496823382h-5.521472392638037Z" style="fill: grey;"></path><path d="M478.83435582822085,74.94282083862768h5.521472392638037v166.50571791613726h-5.521472392638037Z" style="fill: grey;"></path><path d="M484.96932515337426,71.2833545108005h5.521472392638037v171.994917407878h-5.521472392638037Z" style="fill: grey;"></path><path d="M491.1042944785276,67.6238881829733h5.521472392638037v182.97331639135962h-5.521472392638037Z" style="fill: grey;"></path><path d="M497.23926380368096,232.29987293519696h5.521472392638037v42.08386277001267h-5.521472392638037Z" style="fill: grey;"></path><path d="M497.23926380368096,42.08386277001273h5.521472392638037v179.23761118170265h-5.521472392638037Z" style="fill: grey;"></path><path d="M503.37423312883436,82.26175349428206h5.521472392638037v192.12198221092757h-5.521472392638037Z" style="fill: grey;"></path><path d="M509.5092024539877,58.55146124523506h5.521472392638037v177.4078780177891h-5.521472392638037Z" style="fill: grey;"></path><path d="M515.6441717791411,36.59466327827192h5.521472392638037v190.21601016518423h-5.521472392638037Z" style="fill: grey;"></path><path d="M521.7791411042945,45.743329097839904h5.521472392638037v175.57814485387547h-5.521472392638037Z" style="fill: grey;"></path><path d="M527.9141104294479,74.94282083862768h5.521472392638037v150.03811944091487h-5.521472392638037Z" style="fill: grey;"></path><path d="M534.0490797546013,62.210927573062264h5.521472392638037v212.17280813214737h-5.521472392638037Z" style="fill: grey;"></path><path d="M540.1840490797546,51.23252858958068h5.521472392638037v206.6836086404066h-5.521472392638037Z" style="fill: grey;"></path><path d="M546.319018404908,85.9212198221093h5.521472392638037v168.3354510800508h-5.521472392638037Z" style="fill: grey;"></path><path d="M552.4539877300614,84.09148665819569h5.521472392638037v179.31385006353239h-5.521472392638037Z" style="fill: grey;"></path><path d="M558.5889570552147,47.573062261753506h5.521472392638037v184.72681067344345h-5.521472392638037Z" style="fill: grey;"></path><path d="M564.7239263803681,60.38119440914866h5.521472392638037v188.38627700127066h-5.521472392638037Z" style="fill: grey;"></path><path d="M570.8588957055215,67.6238881829733h5.521472392638037v175.6543837357052h-5.521472392638037Z" style="fill: grey;"></path><path d="M576.9938650306749,45.743329097839904h5.521472392638037v199.3646759847522h-5.521472392638037Z" style="fill: grey;"></path><path d="M583.1288343558282,43.913595933926274h5.521472392638037v223.151207115629h-5.521472392638037Z" style="fill: grey;"></path><path d="M589.2638036809816,51.23252858958068h5.521472392638037v206.6836086404066h-5.521472392638037Z" style="fill: grey;"></path><path d="M595.398773006135,84.09148665819569h5.521472392638037v148.20838627700127h-5.521472392638037Z" style="fill: grey;"></path><path d="M601.5337423312883,76.77255400254128h5.521472392638037v155.52731893265567h-5.521472392638037Z" style="fill: grey;"></path><path d="M607.6687116564417,58.55146124523506h5.521472392638037v168.2592121982211h-5.521472392638037Z" style="fill: grey;"></path><path d="M613.8036809815951,58.55146124523506h5.521472392638037v206.68360864040662h-5.521472392638037Z" style="fill: grey;"></path><path d="M619.9386503067485,58.55146124523506h5.521472392638037v203.02414231257941h-5.521472392638037Z" style="fill: grey;"></path><path d="M626.0736196319018,58.55146124523506h5.521472392638037v173.7484116899619h-5.521472392638037Z" style="fill: grey;"></path><path d="M632.2085889570552,40.25412960609913h5.521472392638037v230.47013977128336h-5.521472392638037Z" style="fill: grey;"></path><path d="M638.3435582822086,43.913595933926274h5.521472392638037v190.2160101651843h-5.521472392638037Z" style="fill: grey;"></path><path d="M644.4785276073619,54.891994917407885h5.521472392638037v197.5349428208386h-5.521472392638037Z" style="fill: grey;"></path><path d="M650.6134969325153,43.913595933926274h5.521472392638037v214.002541296061h-5.521472392638037Z" style="fill: grey;"></path><path d="M656.7484662576687,60.38119440914866h5.521472392638037v204.85387547649302h-5.521472392638037Z" style="fill: grey;"></path><path d="M662.8834355828221,45.743329097839904h5.521472392638037v204.85387547649302h-5.521472392638037Z" style="fill: grey;"></path><path d="M669.0184049079754,40.25412960609913h5.521472392638037v219.49174078780175h-5.521472392638037Z" style="fill: grey;"></path><path d="M675.1533742331288,91.41041931385007h5.521472392638037v118.93265565438372h-5.521472392638037Z" style="fill: grey;"></path><path d="M681.2883435582822,60.38119440914866h5.521472392638037v179.23761118170268h-5.521472392638037Z" style="fill: grey;"></path><path d="M687.4233128834355,73.11308767471411h5.521472392638037v164.67598475222363h-5.521472392638037Z" style="fill: grey;"></path><path d="M693.5582822085889,252.4269377382465h5.521472392638037v3.6594663278271753h-5.521472392638037Z" style="fill: grey;"></path><path d="M693.5582822085889,47.573062261753506h5.521472392638037v193.87547649301143h-5.521472392638037Z" style="fill: grey;"></path><path d="M699.6932515337423,51.23252858958068h5.521472392638037v206.6836086404066h-5.521472392638037Z" style="fill: grey;"></path><path d="M705.8282208588957,42.08386277001273h5.521472392638037v201.19440914866578h-5.521472392638037Z" style="fill: grey;"></path><path d="M711.963190184049,31.105463786531118h5.521472392638037v190.21601016518426h-5.521472392638037Z" style="fill: grey;"></path><path d="M718.0981595092024,96.89961880559085h5.521472392638037v177.48411689961878h-5.521472392638037Z" style="fill: grey;"></path><path d="M724.2331288343559,56.72172808132149h5.521472392638037v192.04574332909783h-5.521472392638037Z" style="fill: grey;"></path><path d="M730.3680981595093,31.105463786531118h5.521472392638037v195.70520965692504h-5.521472392638037Z" style="fill: grey;"></path><path d="M736.5030674846626,78.60228716645489h5.521472392638037v159.18678526048285h-5.521472392638037Z" style="fill: grey;"></path><path d="M742.638036809816,71.2833545108005h5.521472392638037v210.41931385006353h-5.521472392638037Z" style="fill: grey;"></path><path d="M748.7730061349694,272.5540025412961h5.521472392638037v1.829733163913545h-5.521472392638037Z" style="fill: grey;"></path><path d="M748.7730061349694,45.743329097839904h5.521472392638037v223.15120711562898h-5.521472392638037Z" style="fill: grey;"></path><path d="M754.9079754601227,263.4053367217281h5.521472392638037v5.489199491740806h-5.521472392638037Z" style="fill: grey;"></path><path d="M754.9079754601227,31.105463786531118h5.521472392638037v210.34307496823382h-5.521472392638037Z" style="fill: grey;"></path><path d="M761.0429447852761,54.891994917407885h5.521472392638037v179.23761118170268h-5.521472392638037Z" style="fill: grey;"></path><path d="M767.1779141104295,80.43202033036852h5.521472392638037v170.1651842439644h-5.521472392638037Z" style="fill: grey;"></path><path d="M773.3128834355829,60.38119440914866h5.521472392638037v175.5781448538755h-5.521472392638037Z" style="fill: grey;"></path><path d="M779.4478527607362,107.8780177890724h5.521472392638037v98.80559085133422h-5.521472392638037Z" style="fill: grey;"></path><path d="M785.5828220858896,51.23252858958068h5.521472392638037v201.1944091486658h-5.521472392638037Z" style="fill: grey;"></path><path d="M791.717791411043,239.61880559085134h5.521472392638037v1.8297331639136019h-5.521472392638037Z" style="fill: grey;"></path><path d="M791.717791411043,73.11308767471411h5.521472392638037v153.69758576874204h-5.521472392638037Z" style="fill: grey;"></path><path d="M797.8527607361963,65.79415501905973h5.521472392638037v195.78144853875474h-5.521472392638037Z" style="fill: grey;"></path><path d="M803.9877300613497,100.55908513341805h5.521472392638037v162.84625158831003h-5.521472392638037Z" style="fill: grey;"></path><path d="M810.1226993865031,69.4536213468869h5.521472392638037v157.35705209656925h-5.521472392638037Z" style="fill: grey;"></path><path d="M816.2576687116565,56.72172808132149h5.521472392638037v177.40787801778907h-5.521472392638037Z" style="fill: grey;"></path><path d="M822.3926380368098,95.06988564167725h5.521472392638037v170.16518424396443h-5.521472392638037Z" style="fill: grey;"></path><path d="M828.5276073619632,78.60228716645489h5.521472392638037v161.01651842439645h-5.521472392638037Z" style="fill: grey;"></path><path d="M834.6625766871166,74.94282083862768h5.521472392638037v179.3138500635324h-5.521472392638037Z" style="fill: grey;"></path><path d="M840.7975460122699,45.743329097839904h5.521472392638037v197.5349428208386h-5.521472392638037Z" style="fill: grey;"></path><path d="M846.9325153374233,65.79415501905973h5.521472392638037v171.994917407878h-5.521472392638037Z" style="fill: grey;"></path><path d="M853.0674846625767,84.09148665819569h5.521472392638037v135.40025412960608h-5.521472392638037Z" style="fill: grey;"></path><path d="M859.2024539877301,53.06226175349428h5.521472392638037v215.8322744599746h-5.521472392638037Z" style="fill: grey;"></path><path d="M865.3374233128834,63.96442185514613h5.521472392638037v186.6327827191868h-5.521472392638037Z" style="fill: grey;"></path><path d="M871.4723926380368,124.34561626429479h5.521472392638037v85.997458703939h-5.521472392638037Z" style="fill: grey;"></path><path d="M877.6073619631902,84.09148665819569h5.521472392638037v148.20838627700127h-5.521472392638037Z" style="fill: grey;"></path><path d="M883.7423312883436,109.707750952986h5.521472392638037v95.14612452350698h-5.521472392638037Z" style="fill: grey;"></path><path d="M889.8773006134969,53.06226175349428h5.521472392638037v210.3430749682338h-5.521472392638037Z" style="fill: grey;"></path><path d="M896.0122699386503,208.5133418043202h5.521472392638037v18.29733163913596h-5.521472392638037Z" style="fill: grey;"></path><path d="M896.0122699386503,95.06988564167725h5.521472392638037v20.127064803049564h-5.521472392638037Z" style="fill: grey;"></path><path d="M902.1472392638037,60.38119440914866h5.521472392638037v162.77001270648032h-5.521472392638037Z" style="fill: grey;"></path><path d="M908.282208588957,73.11308767471411h5.521472392638037v144.54891994917406h-5.521472392638037Z" style="fill: grey;"></path><path d="M914.4171779141104,56.72172808132149h5.521472392638037v184.72681067344345h-5.521472392638037Z" style="fill: grey;"></path><path d="M920.5521472392638,78.60228716645489h5.521472392638037v173.8246505717916h-5.521472392638037Z" style="fill: grey;"></path><path d="M926.6871165644172,73.11308767471411h5.521472392638037v120.76238881829732h-5.521472392638037Z" style="fill: grey;"></path><path d="M932.8220858895705,47.573062261753506h5.521472392638037v192.04574332909783h-5.521472392638037Z" style="fill: grey;"></path><path d="M938.9570552147239,80.43202033036852h5.521472392638037v177.48411689961875h-5.521472392638037Z" style="fill: grey;"></path><path d="M945.0920245398773,74.94282083862768h5.521472392638037v159.18678526048288h-5.521472392638037Z" style="fill: grey;"></path><path d="M951.2269938650306,60.38119440914866h5.521472392638037v199.3646759847522h-5.521472392638037Z" style="fill: grey;"></path><path d="M957.361963190184,102.38881829733162h5.521472392638037v102.46505717916136h-5.521472392638037Z" style="fill: grey;"></path><path d="M963.4969325153374,45.743329097839904h5.521472392638037v159.11054637865308h-5.521472392638037Z" style="fill: grey;"></path><path d="M969.6319018404909,43.913595933926274h5.521472392638037v214.002541296061h-5.521472392638037Z" style="fill: grey;"></path><path d="M975.7668711656441,60.38119440914866h5.521472392638037v166.4294790343075h-5.521472392638037Z" style="fill: grey;"></path><path d="M981.9018404907976,98.72935196950445h5.521472392638037v111.61372299872934h-5.521472392638037Z" style="fill: grey;"></path><path d="M988.036809815951,109.707750952986h5.521472392638037v118.93265565438375h-5.521472392638037Z" style="fill: grey;"></path><path d="M994.1717791411043,65.79415501905973h5.521472392638037v171.994917407878h-5.521472392638037Z" style="fill: grey;"></path></g><g class="mark-line role-mark layer_1_marks"><path d="M996.9325153374233,143.33333333333331L990.79754601227,191.66666666666669L984.6625766871166,196.66666666666669L978.5276073619632,148.33333333333334L972.3926380368099,105L966.2576687116565,155L960.1226993865031,205L953.9877300613497,118.33333333333334L947.8527607361964,155L941.717791411043,138.33333333333334L935.5828220858896,123.33333333333331L929.4478527607363,190L923.3128834355829,141.66666666666666L917.1779141104295,131.66666666666666L911.0429447852761,166.66666666666669L904.9079754601228,151.66666666666666L898.7730061349694,265L892.638036809816,108.33333333333334L886.5030674846627,211.66666666666666L880.3680981595093,163.33333333333334L874.2331288343559,221.66666666666666L868.0981595092024,130L861.9631901840492,101.66666666666669L855.8282208588957,176.66666666666669L849.6932515337423,143.33333333333331L843.5582822085889,120L837.4233128834356,135L831.2883435582822,153.33333333333334L825.1533742331288,144.99999999999997L819.0184049079755,138.33333333333334L812.8834355828221,155L806.7484662576687,151.66666666666666L800.6134969325153,121.66666666666666L794.478527607362,158.33333333333334L788.3435582822086,115L782.2085889570552,210L776.0736196319019,140L769.9386503067485,144.99999999999997L763.8036809815951,135L757.6687116564417,103.33333333333334L751.5337423312884,95L745.398773006135,108.33333333333334L739.2638036809816,153.33333333333334L733.1288343558283,121.66666666666666L726.9938650306749,125L720.8588957055215,138.33333333333334L714.7239263803681,125L708.5889570552148,116.66666666666666L702.4539877300614,111.66666666666666L696.319018404908,120L690.1840490797546,148.33333333333334L684.0490797546013,136.66666666666669L677.9141104294479,191.66666666666669L671.7791411042945,100L665.6441717791412,111.66666666666666L659.5092024539878,113.33333333333334L653.3742331288344,105L647.239263803681,120L641.1042944785277,125L634.9693251533743,90L628.8343558282209,141.66666666666666L622.6993865030676,115L616.5644171779142,110L610.4294478527607,146.66666666666669L604.2944785276073,158.33333333333334L598.159509202454,165L592.0245398773006,110L585.8895705521472,96.66666666666666L579.7546012269939,118.33333333333334L573.6196319018405,140L567.4846625766871,126.66666666666669L561.3496932515337,131.66666666666666L555.2147239263804,136.66666666666669L549.079754601227,146.66666666666669L542.9447852760736,110L536.8098159509203,106.66666666666666L530.6748466257669,163.33333333333334L524.5398773006135,140L518.4049079754601,125L512.2699386503067,138.33333333333334L506.1349693251534,125L500,98.33333333333331L493.86503067484665,131.66666666666666L487.7300613496933,143.33333333333331L481.5950920245399,148.33333333333334L475.46012269938655,108.33333333333334L469.32515337423314,191.66666666666669L463.1901840490798,136.66666666666669L457.0552147239264,121.66666666666666L450.92024539877303,140L444.7852760736197,123.33333333333331L438.6503067484663,128.33333333333334L432.51533742331293,93.33333333333334L426.3803680981595,125L420.2453987730062,126.66666666666669L414.11042944785277,91.66666666666669L407.9754601226994,140L401.840490797546,165L395.70552147239266,116.66666666666666L389.5705521472393,163.33333333333334L383.4355828220859,108.33333333333334L377.30061349693256,106.66666666666666L371.16564417177915,130L365.0306748466258,108.33333333333334L358.8957055214724,153.33333333333334L352.76073619631904,135L346.62576687116564,120L340.4907975460123,131.66666666666666L334.35582822085894,136.66666666666669L328.22085889570553,123.33333333333331L322.0858895705522,161.66666666666666L315.9509202453988,143.33333333333331L309.8159509202454,138.33333333333334L303.680981595092,120L297.5460122699387,90L291.4110429447853,151.66666666666666L285.2760736196319,125L279.14110429447857,121.66666666666666L273.00613496932516,115L266.8711656441718,83.33333333333334L260.7361963190184,133.33333333333331L254.60122699386503,116.66666666666666L248.46625766871165,148.33333333333334L242.33128834355827,131.66666666666666L236.1963190184049,131.66666666666666L230.06134969325151,113.33333333333334L223.92638036809817,138.33333333333334L217.7914110429448,115L211.6564417177914,175L205.52147239263803,153.33333333333334L199.38650306748465,111.66666666666666L193.25153374233128,81.66666666666669L187.1165644171779,86.66666666666666L180.98159509202452,93.33333333333334L174.84662576687114,101.66666666666669L168.7116564417178,93.33333333333334L162.57668711656441,170L156.44171779141104,31.66666666666663L150.30674846625766,135L144.17177914110428,113.33333333333334L138.0368098159509,196.66666666666669L131.90184049079753,83.33333333333334L125.76687116564416,148.33333333333334L119.63190184049078,90L113.49693251533742,73.33333333333334L107.36196319018404,60L101.22699386503066,90L95.09202453987729,135L88.95705521472391,81.66666666666669L82.82208588957054,88.33333333333331L76.68711656441717,116.66666666666666L70.55214723926379,95L64.41717791411043,91.66666666666669L58.28220858895705,103.33333333333334L52.14723926380367,91.66666666666669L46.01226993865029,126.66666666666669L39.87730061349692,80.00000000000003L33.74233128834355,105L27.607361963190176,116.66666666666666L21.4723926380368,140L15.337423312883427,98.33333333333331L9.202453987730053,48.333333333333314L3.0674846625766774,103.33333333333334" style="fill: none; stroke: blue; stroke-width: 2;"></path></g><g class="mark-text role-title" style="pointer-events: none;"><text text-anchor="middle" transform="translate(487.93603515625,-13)" style="font-family: sans-serif; font-size: 13px; font-weight: bold; fill: #000; opacity: 1;">Freezing and Thawing of Lake Mendota, 1855-56 to 2017-18</text></g><g class="mark-group role-axis"><g transform="translate(0.5,300.5)"><path class="background" d="M0,0h0v0h0Z" style="pointer-events: none; fill: none;"></path><g><g class="mark-rule role-axis-tick" style="pointer-events: none;"><line transform="translate(2,0)" x2="0" y2="5" style="fill: none; stroke: #888; stroke-width: 1; opacity: 1;"></line><line transform="translate(8,0)" x2="0" y2="5" style="fill: none; stroke: #888; stroke-width: 1; opacity: 1;"></line><line transform="translate(14,0)" x2="0" y2="5" style="fill: none; stroke: #888; stroke-width: 1; opacity: 1;"></line><line transform="translate(20,0)" x2="0" y2="5" style="fill: none; stroke: #888; stroke-width: 1; opacity: 1;"></line><line transform="translate(27,0)" x2="0" y2="5" style="fill: none; stroke: #888; stroke-width: 1; opacity: 1;"></line><line transform="translate(33,0)" x2="0" y2="5" style="fill: none; stroke: #888; stroke-width: 1; opacity: 1;"></line><line transform="translate(39,0)" x2="0" y2="5" style="fill: none; stroke: #888; stroke-width: 1; opacity: 1;"></line><line transform="translate(45,0)" x2="0" y2="5" style="fill: none; stroke: #888; stroke-width: 1; opacity: 1;"></line><line transform="translate(51,0)" x2="0" y2="5" style="fill: none; stroke: #888; stroke-width: 1; opacity: 1;"></line><line transform="translate(57,0)" x2="0" y2="5" style="fill: none; stroke: #888; stroke-width: 1; opacity: 1;"></line><line transform="translate(63,0)" x2="0" y2="5" style="fill: none; stroke: #888; stroke-width: 1; opacity: 1;"></line><line transform="translate(70,0)" x2="0" y2="5" style="fill: none; stroke: #888; stroke-width: 1; opacity: 1;"></line><line transform="translate(76,0)" x2="0" y2="5" style="fill: none; stroke: #888; stroke-width: 1; opacity: 1;"></line><line transform="translate(82,0)" x2="0" y2="5" style="fill: none; stroke: #888; stroke-width: 1; opacity: 1;"></line><line transform="translate(88,0)" x2="0" y2="5" style="fill: none; stroke: #888; stroke-width: 1; opacity: 1;"></line><line transform="translate(94,0)" x2="0" y2="5" style="fill: none; stroke: #888; stroke-width: 1; opacity: 1;"></line><line transform="translate(100,0)" x2="0" y2="5" style="fill: none; stroke: #888; stroke-width: 1; opacity: 1;"></line><line transform="translate(106,0)" x2="0" y2="5" style="fill: none; stroke: #888; stroke-width: 1; opacity: 1;"></line><line transform="translate(112,0)" x2="0" y2="5" style="fill: none; stroke: #888; stroke-width: 1; opacity: 1;"></line><line transform="translate(119,0)" x2="0" y2="5" style="fill: none; stroke: #888; stroke-width: 1; opacity: 1;"></line><line transform="translate(125,0)" x2="0" y2="5" style="fill: none; stroke: #888; stroke-width: 1; opacity: 1;"></line><line transform="translate(131,0)" x2="0" y2="5" style="fill: none; stroke: #888; stroke-width: 1; opacity: 1;"></line><line transform="translate(137,0)" x2="0" y2="5" style="fill: none; stroke: #888; stroke-width: 1; opacity: 1;"></line><line transform="translate(143,0)" x2="0" y2="5" style="fill: none; stroke: #888; stroke-width: 1; opacity: 1;"></line><line transform="translate(149,0)" x2="0" y2="5" style="fill: none; stroke: #888; stroke-width: 1; opacity: 1;"></line><line transform="translate(155,0)" x2="0" y2="5" style="fill: none; stroke: #888; stroke-width: 1; opacity: 1;"></line><line transform="translate(162,0)" x2="0" y2="5" style="fill: none; stroke: #888; stroke-width: 1; opacity: 1;"></line><line transform="translate(168,0)" x2="0" y2="5" style="fill: none; stroke: #888; stroke-width: 1; opacity: 1;"></line><line transform="translate(174,0)" x2="0" y2="5" style="fill: none; stroke: #888; stroke-width: 1; opacity: 1;"></line><line transform="translate(180,0)" x2="0" y2="5" style="fill: none; stroke: #888; stroke-width: 1; opacity: 1;"></line><line transform="translate(186,0)" x2="0" y2="5" style="fill: none; stroke: #888; stroke-width: 1; opacity: 1;"></line><line transform="translate(192,0)" x2="0" y2="5" style="fill: none; stroke: #888; stroke-width: 1; opacity: 1;"></line><line transform="translate(198,0)" x2="0" y2="5" style="fill: none; stroke: #888; stroke-width: 1; opacity: 1;"></line><line transform="translate(205,0)" x2="0" y2="5" style="fill: none; stroke: #888; stroke-width: 1; opacity: 1;"></line><line transform="translate(211,0)" x2="0" y2="5" style="fill: none; stroke: #888; stroke-width: 1; opacity: 1;"></line><line transform="translate(217,0)" x2="0" y2="5" style="fill: none; stroke: #888; stroke-width: 1; opacity: 1;"></line><line transform="translate(223,0)" x2="0" y2="5" style="fill: none; stroke: #888; stroke-width: 1; opacity: 1;"></line><line transform="translate(229,0)" x2="0" y2="5" style="fill: none; stroke: #888; stroke-width: 1; opacity: 1;"></line><line transform="translate(235,0)" x2="0" y2="5" style="fill: none; stroke: #888; stroke-width: 1; opacity: 1;"></line><line transform="translate(241,0)" x2="0" y2="5" style="fill: none; stroke: #888; stroke-width: 1; opacity: 1;"></line><line transform="translate(247,0)" x2="0" y2="5" style="fill: none; stroke: #888; stroke-width: 1; opacity: 1;"></line><line transform="translate(254,0)" x2="0" y2="5" style="fill: none; stroke: #888; stroke-width: 1; opacity: 1;"></line><line transform="translate(260,0)" x2="0" y2="5" style="fill: none; stroke: #888; stroke-width: 1; opacity: 1;"></line><line transform="translate(266,0)" x2="0" y2="5" style="fill: none; stroke: #888; stroke-width: 1; opacity: 1;"></line><line transform="translate(272,0)" x2="0" y2="5" style="fill: none; stroke: #888; stroke-width: 1; opacity: 1;"></line><line transform="translate(278,0)" x2="0" y2="5" style="fill: none; stroke: #888; stroke-width: 1; opacity: 1;"></line><line transform="translate(284,0)" x2="0" y2="5" style="fill: none; stroke: #888; stroke-width: 1; opacity: 1;"></line><line transform="translate(290,0)" x2="0" y2="5" style="fill: none; stroke: #888; stroke-width: 1; opacity: 1;"></line><line transform="translate(297,0)" x2="0" y2="5" style="fill: none; stroke: #888; stroke-width: 1; opacity: 1;"></line><line transform="translate(303,0)" x2="0" y2="5" style="fill: none; stroke: #888; stroke-width: 1; opacity: 1;"></line><line transform="translate(309,0)" x2="0" y2="5" style="fill: none; stroke: #888; stroke-width: 1; opacity: 1;"></line><line transform="translate(315,0)" x2="0" y2="5" style="fill: none; stroke: #888; stroke-width: 1; opacity: 1;"></line><line transform="translate(321,0)" x2="0" y2="5" style="fill: none; stroke: #888; stroke-width: 1; opacity: 1;"></line><line transform="translate(327,0)" x2="0" y2="5" style="fill: none; stroke: #888; stroke-width: 1; opacity: 1;"></line><line transform="translate(333,0)" x2="0" y2="5" style="fill: none; stroke: #888; stroke-width: 1; opacity: 1;"></line><line transform="translate(339,0)" x2="0" y2="5" style="fill: none; stroke: #888; stroke-width: 1; opacity: 1;"></line><line transform="translate(346,0)" x2="0" y2="5" style="fill: none; stroke: #888; stroke-width: 1; opacity: 1;"></line><line transform="translate(352,0)" x2="0" y2="5" style="fill: none; stroke: #888; stroke-width: 1; opacity: 1;"></line><line transform="translate(358,0)" x2="0" y2="5" style="fill: none; stroke: #888; stroke-width: 1; opacity: 1;"></line><line transform="translate(364,0)" x2="0" y2="5" style="fill: none; stroke: #888; stroke-width: 1; opacity: 1;"></line><line transform="translate(370,0)" x2="0" y2="5" style="fill: none; stroke: #888; stroke-width: 1; opacity: 1;"></line><line transform="translate(376,0)" x2="0" y2="5" style="fill: none; stroke: #888; stroke-width: 1; opacity: 1;"></line><line transform="translate(382,0)" x2="0" y2="5" style="fill: none; stroke: #888; stroke-width: 1; opacity: 1;"></line><line transform="translate(389,0)" x2="0" y2="5" style="fill: none; stroke: #888; stroke-width: 1; opacity: 1;"></line><line transform="translate(395,0)" x2="0" y2="5" style="fill: none; stroke: #888; stroke-width: 1; opacity: 1;"></line><line transform="translate(401,0)" x2="0" y2="5" style="fill: none; stroke: #888; stroke-width: 1; opacity: 1;"></line><line transform="translate(407,0)" x2="0" y2="5" style="fill: none; stroke: #888; stroke-width: 1; opacity: 1;"></line><line transform="translate(413,0)" x2="0" y2="5" style="fill: none; stroke: #888; stroke-width: 1; opacity: 1;"></line><line transform="translate(419,0)" x2="0" y2="5" style="fill: none; stroke: #888; stroke-width: 1; opacity: 1;"></line><line transform="translate(425,0)" x2="0" y2="5" style="fill: none; stroke: #888; stroke-width: 1; opacity: 1;"></line><line transform="translate(432,0)" x2="0" y2="5" style="fill: none; stroke: #888; stroke-width: 1; opacity: 1;"></line><line transform="translate(438,0)" x2="0" y2="5" style="fill: none; stroke: #888; stroke-width: 1; opacity: 1;"></line><line transform="translate(444,0)" x2="0" y2="5" style="fill: none; stroke: #888; stroke-width: 1; opacity: 1;"></line><line transform="translate(450,0)" x2="0" y2="5" style="fill: none; stroke: #888; stroke-width: 1; opacity: 1;"></line><line transform="translate(456,0)" x2="0" y2="5" style="fill: none; stroke: #888; stroke-width: 1; opacity: 1;"></line><line transform="translate(462,0)" x2="0" y2="5" style="fill: none; stroke: #888; stroke-width: 1; opacity: 1;"></line><line transform="translate(468,0)" x2="0" y2="5" style="fill: none; stroke: #888; stroke-width: 1; opacity: 1;"></line><line transform="translate(474,0)" x2="0" y2="5" style="fill: none; stroke: #888; stroke-width: 1; opacity: 1;"></line><line transform="translate(481,0)" x2="0" y2="5" style="fill: none; stroke: #888; stroke-width: 1; opacity: 1;"></line><line transform="translate(487,0)" x2="0" y2="5" style="fill: none; stroke: #888; stroke-width: 1; opacity: 1;"></line><line transform="translate(493,0)" x2="0" y2="5" style="fill: none; stroke: #888; stroke-width: 1; opacity: 1;"></line><line transform="translate(499,0)" x2="0" y2="5" style="fill: none; stroke: #888; stroke-width: 1; opacity: 1;"></line><line transform="translate(505,0)" x2="0" y2="5" style="fill: none; stroke: #888; stroke-width: 1; opacity: 1;"></line><line transform="translate(511,0)" x2="0" y2="5" style="fill: none; stroke: #888; stroke-width: 1; opacity: 1;"></line><line transform="translate(517,0)" x2="0" y2="5" style="fill: none; stroke: #888; stroke-width: 1; opacity: 1;"></line><line transform="translate(524,0)" x2="0" y2="5" style="fill: none; stroke: #888; stroke-width: 1; opacity: 1;"></line><line transform="translate(530,0)" x2="0" y2="5" style="fill: none; stroke: #888; stroke-width: 1; opacity: 1;"></line><line transform="translate(536,0)" x2="0" y2="5" style="fill: none; stroke: #888; stroke-width: 1; opacity: 1;"></line><line transform="translate(542,0)" x2="0" y2="5" style="fill: none; stroke: #888; stroke-width: 1; opacity: 1;"></line><line transform="translate(548,0)" x2="0" y2="5" style="fill: none; stroke: #888; stroke-width: 1; opacity: 1;"></line><line transform="translate(554,0)" x2="0" y2="5" style="fill: none; stroke: #888; stroke-width: 1; opacity: 1;"></line><line transform="translate(560,0)" x2="0" y2="5" style="fill: none; stroke: #888; stroke-width: 1; opacity: 1;"></line><line transform="translate(566,0)" x2="0" y2="5" style="fill: none; stroke: #888; stroke-width: 1; opacity: 1;"></line><line transform="translate(573,0)" x2="0" y2="5" style="fill: none; stroke: #888; stroke-width: 1; opacity: 1;"></line><line transform="translate(579,0)" x2="0" y2="5" style="fill: none; stroke: #888; stroke-width: 1; opacity: 1;"></line><line transform="translate(585,0)" x2="0" y2="5" style="fill: none; stroke: #888; stroke-width: 1; opacity: 1;"></line><line transform="translate(591,0)" x2="0" y2="5" style="fill: none; stroke: #888; stroke-width: 1; opacity: 1;"></line><line transform="translate(597,0)" x2="0" y2="5" style="fill: none; stroke: #888; stroke-width: 1; opacity: 1;"></line><line transform="translate(603,0)" x2="0" y2="5" style="fill: none; stroke: #888; stroke-width: 1; opacity: 1;"></line><line transform="translate(609,0)" x2="0" y2="5" style="fill: none; stroke: #888; stroke-width: 1; opacity: 1;"></line><line transform="translate(616,0)" x2="0" y2="5" style="fill: none; stroke: #888; stroke-width: 1; opacity: 1;"></line><line transform="translate(622,0)" x2="0" y2="5" style="fill: none; stroke: #888; stroke-width: 1; opacity: 1;"></line><line transform="translate(628,0)" x2="0" y2="5" style="fill: none; stroke: #888; stroke-width: 1; opacity: 1;"></line><line transform="translate(634,0)" x2="0" y2="5" style="fill: none; stroke: #888; stroke-width: 1; opacity: 1;"></line><line transform="translate(640,0)" x2="0" y2="5" style="fill: none; stroke: #888; stroke-width: 1; opacity: 1;"></line><line transform="translate(646,0)" x2="0" y2="5" style="fill: none; stroke: #888; stroke-width: 1; opacity: 1;"></line><line transform="translate(652,0)" x2="0" y2="5" style="fill: none; stroke: #888; stroke-width: 1; opacity: 1;"></line><line transform="translate(659,0)" x2="0" y2="5" style="fill: none; stroke: #888; stroke-width: 1; opacity: 1;"></line><line transform="translate(665,0)" x2="0" y2="5" style="fill: none; stroke: #888; stroke-width: 1; opacity: 1;"></line><line transform="translate(671,0)" x2="0" y2="5" style="fill: none; stroke: #888; stroke-width: 1; opacity: 1;"></line><line transform="translate(677,0)" x2="0" y2="5" style="fill: none; stroke: #888; stroke-width: 1; opacity: 1;"></line><line transform="translate(683,0)" x2="0" y2="5" style="fill: none; stroke: #888; stroke-width: 1; opacity: 1;"></line><line transform="translate(689,0)" x2="0" y2="5" style="fill: none; stroke: #888; stroke-width: 1; opacity: 1;"></line><line transform="translate(695,0)" x2="0" y2="5" style="fill: none; stroke: #888; stroke-width: 1; opacity: 1;"></line><line transform="translate(701,0)" x2="0" y2="5" style="fill: none; stroke: #888; stroke-width: 1; opacity: 1;"></line><line transform="translate(708,0)" x2="0" y2="5" style="fill: none; stroke: #888; stroke-width: 1; opacity: 1;"></line><line transform="translate(714,0)" x2="0" y2="5" style="fill: none; stroke: #888; stroke-width: 1; opacity: 1;"></line><line transform="translate(720,0)" x2="0" y2="5" style="fill: none; stroke: #888; stroke-width: 1; opacity: 1;"></line><line transform="translate(726,0)" x2="0" y2="5" style="fill: none; stroke: #888; stroke-width: 1; opacity: 1;"></line><line transform="translate(732,0)" x2="0" y2="5" style="fill: none; stroke: #888; stroke-width: 1; opacity: 1;"></line><line transform="translate(738,0)" x2="0" y2="5" style="fill: none; stroke: #888; stroke-width: 1; opacity: 1;"></line><line transform="translate(744,0)" x2="0" y2="5" style="fill: none; stroke: #888; stroke-width: 1; opacity: 1;"></line><line transform="translate(751,0)" x2="0" y2="5" style="fill: none; stroke: #888; stroke-width: 1; opacity: 1;"></line><line transform="translate(757,0)" x2="0" y2="5" style="fill: none; stroke: #888; stroke-width: 1; opacity: 1;"></line><line transform="translate(763,0)" x2="0" y2="5" style="fill: none; stroke: #888; stroke-width: 1; opacity: 1;"></line><line transform="translate(769,0)" x2="0" y2="5" style="fill: none; stroke: #888; stroke-width: 1; opacity: 1;"></line><line transform="translate(775,0)" x2="0" y2="5" style="fill: none; stroke: #888; stroke-width: 1; opacity: 1;"></line><line transform="translate(781,0)" x2="0" y2="5" style="fill: none; stroke: #888; stroke-width: 1; opacity: 1;"></line><line transform="translate(787,0)" x2="0" y2="5" style="fill: none; stroke: #888; stroke-width: 1; opacity: 1;"></line><line transform="translate(793,0)" x2="0" y2="5" style="fill: none; stroke: #888; stroke-width: 1; opacity: 1;"></line><line transform="translate(800,0)" x2="0" y2="5" style="fill: none; stroke: #888; stroke-width: 1; opacity: 1;"></line><line transform="translate(806,0)" x2="0" y2="5" style="fill: none; stroke: #888; stroke-width: 1; opacity: 1;"></line><line transform="translate(812,0)" x2="0" y2="5" style="fill: none; stroke: #888; stroke-width: 1; opacity: 1;"></line><line transform="translate(818,0)" x2="0" y2="5" style="fill: none; stroke: #888; stroke-width: 1; opacity: 1;"></line><line transform="translate(824,0)" x2="0" y2="5" style="fill: none; stroke: #888; stroke-width: 1; opacity: 1;"></line><line transform="translate(830,0)" x2="0" y2="5" style="fill: none; stroke: #888; stroke-width: 1; opacity: 1;"></line><line transform="translate(836,0)" x2="0" y2="5" style="fill: none; stroke: #888; stroke-width: 1; opacity: 1;"></line><line transform="translate(843,0)" x2="0" y2="5" style="fill: none; stroke: #888; stroke-width: 1; opacity: 1;"></line><line transform="translate(849,0)" x2="0" y2="5" style="fill: none; stroke: #888; stroke-width: 1; opacity: 1;"></line><line transform="translate(855,0)" x2="0" y2="5" style="fill: none; stroke: #888; stroke-width: 1; opacity: 1;"></line><line transform="translate(861,0)" x2="0" y2="5" style="fill: none; stroke: #888; stroke-width: 1; opacity: 1;"></line><line transform="translate(867,0)" x2="0" y2="5" style="fill: none; stroke: #888; stroke-width: 1; opacity: 1;"></line><line transform="translate(873,0)" x2="0" y2="5" style="fill: none; stroke: #888; stroke-width: 1; opacity: 1;"></line><line transform="translate(879,0)" x2="0" y2="5" style="fill: none; stroke: #888; stroke-width: 1; opacity: 1;"></line><line transform="translate(886,0)" x2="0" y2="5" style="fill: none; stroke: #888; stroke-width: 1; opacity: 1;"></line><line transform="translate(892,0)" x2="0" y2="5" style="fill: none; stroke: #888; stroke-width: 1; opacity: 1;"></line><line transform="translate(898,0)" x2="0" y2="5" style="fill: none; stroke: #888; stroke-width: 1; opacity: 1;"></line><line transform="translate(904,0)" x2="0" y2="5" style="fill: none; stroke: #888; stroke-width: 1; opacity: 1;"></line><line transform="translate(910,0)" x2="0" y2="5" style="fill: none; stroke: #888; stroke-width: 1; opacity: 1;"></line><line transform="translate(916,0)" x2="0" y2="5" style="fill: none; stroke: #888; stroke-width: 1; opacity: 1;"></line><line transform="translate(922,0)" x2="0" y2="5" style="fill: none; stroke: #888; stroke-width: 1; opacity: 1;"></line><line transform="translate(928,0)" x2="0" y2="5" style="fill: none; stroke: #888; stroke-width: 1; opacity: 1;"></line><line transform="translate(935,0)" x2="0" y2="5" style="fill: none; stroke: #888; stroke-width: 1; opacity: 1;"></line><line transform="translate(941,0)" x2="0" y2="5" style="fill: none; stroke: #888; stroke-width: 1; opacity: 1;"></line><line transform="translate(947,0)" x2="0" y2="5" style="fill: none; stroke: #888; stroke-width: 1; opacity: 1;"></line><line transform="translate(953,0)" x2="0" y2="5" style="fill: none; stroke: #888; stroke-width: 1; opacity: 1;"></line><line transform="translate(959,0)" x2="0" y2="5" style="fill: none; stroke: #888; stroke-width: 1; opacity: 1;"></line><line transform="translate(965,0)" x2="0" y2="5" style="fill: none; stroke: #888; stroke-width: 1; opacity: 1;"></line><line transform="translate(971,0)" x2="0" y2="5" style="fill: none; stroke: #888; stroke-width: 1; opacity: 1;"></line><line transform="translate(978,0)" x2="0" y2="5" style="fill: none; stroke: #888; stroke-width: 1; opacity: 1;"></line><line transform="translate(984,0)" x2="0" y2="5" style="fill: none; stroke: #888; stroke-width: 1; opacity: 1;"></line><line transform="translate(990,0)" x2="0" y2="5" style="fill: none; stroke: #888; stroke-width: 1; opacity: 1;"></line><line transform="translate(996,0)" x2="0" y2="5" style="fill: none; stroke: #888; stroke-width: 1; opacity: 1;"></line></g><g class="mark-text role-axis-label" style="pointer-events: none;"><text text-anchor="end" transform="translate(2.0674846625766774,7) rotate(270) translate(0,3)" style="font-family: sans-serif; font-size: 10px; fill: #000; opacity: 1;">1855-56</text><text text-anchor="end" transform="translate(8.202453987730053,7) rotate(270) translate(0,3)" style="font-family: sans-serif; font-size: 10px; fill: #000; opacity: 0;">1856-57</text><text text-anchor="end" transform="translate(14.337423312883427,7) rotate(270) translate(0,3)" style="font-family: sans-serif; font-size: 10px; fill: #000; opacity: 1;">1857-58</text><text text-anchor="end" transform="translate(20.4723926380368,7) rotate(270) translate(0,3)" style="font-family: sans-serif; font-size: 10px; fill: #000; opacity: 0;">1858-59</text><text text-anchor="end" transform="translate(26.607361963190176,7) rotate(270) translate(0,3)" style="font-family: sans-serif; font-size: 10px; fill: #000; opacity: 1;">1859-60</text><text text-anchor="end" transform="translate(32.74233128834355,7) rotate(270) translate(0,3)" style="font-family: sans-serif; font-size: 10px; fill: #000; opacity: 0;">1860-61</text><text text-anchor="end" transform="translate(38.87730061349692,7) rotate(270) translate(0,3)" style="font-family: sans-serif; font-size: 10px; fill: #000; opacity: 1;">1861-62</text><text text-anchor="end" transform="translate(45.01226993865029,7) rotate(270) translate(0,3)" style="font-family: sans-serif; font-size: 10px; fill: #000; opacity: 0;">1862-63</text><text text-anchor="end" transform="translate(51.14723926380367,7) rotate(270) translate(0,3)" style="font-family: sans-serif; font-size: 10px; fill: #000; opacity: 1;">1863-64</text><text text-anchor="end" transform="translate(57.28220858895705,7) rotate(270) translate(0,3)" style="font-family: sans-serif; font-size: 10px; fill: #000; opacity: 0;">1864-65</text><text text-anchor="end" transform="translate(63.417177914110425,7) rotate(270) translate(0,3)" style="font-family: sans-serif; font-size: 10px; fill: #000; opacity: 1;">1865-66</text><text text-anchor="end" transform="translate(69.55214723926379,7) rotate(270) translate(0,3)" style="font-family: sans-serif; font-size: 10px; fill: #000; opacity: 0;">1866-67</text><text text-anchor="end" transform="translate(75.68711656441717,7) rotate(270) translate(0,3)" style="font-family: sans-serif; font-size: 10px; fill: #000; opacity: 1;">1867-68</text><text text-anchor="end" transform="translate(81.82208588957054,7) rotate(270) translate(0,3)" style="font-family: sans-serif; font-size: 10px; fill: #000; opacity: 0;">1868-69</text><text text-anchor="end" transform="translate(87.95705521472391,7) rotate(270) translate(0,3)" style="font-family: sans-serif; font-size: 10px; fill: #000; opacity: 1;">1869-70</text><text text-anchor="end" transform="translate(94.09202453987729,7) rotate(270) translate(0,3)" style="font-family: sans-serif; font-size: 10px; fill: #000; opacity: 0;">1870-71</text><text text-anchor="end" transform="translate(100.22699386503066,7) rotate(270) translate(0,3)" style="font-family: sans-serif; font-size: 10px; fill: #000; opacity: 1;">1871-72</text><text text-anchor="end" transform="translate(106.36196319018404,7) rotate(270) translate(0,3)" style="font-family: sans-serif; font-size: 10px; fill: #000; opacity: 0;">1872-73</text><text text-anchor="end" transform="translate(112.49693251533742,7) rotate(270) translate(0,3)" style="font-family: sans-serif; font-size: 10px; fill: #000; opacity: 1;">1873-74</text><text text-anchor="end" transform="translate(118.63190184049078,7) rotate(270) translate(0,3)" style="font-family: sans-serif; font-size: 10px; fill: #000; opacity: 0;">1874-75</text><text text-anchor="end" transform="translate(124.76687116564416,7) rotate(270) translate(0,3)" style="font-family: sans-serif; font-size: 10px; fill: #000; opacity: 1;">1875-76</text><text text-anchor="end" transform="translate(130.90184049079753,7) rotate(270) translate(0,3)" style="font-family: sans-serif; font-size: 10px; fill: #000; opacity: 0;">1876-77</text><text text-anchor="end" transform="translate(137.0368098159509,7) rotate(270) translate(0,3)" style="font-family: sans-serif; font-size: 10px; fill: #000; opacity: 1;">1877-78</text><text text-anchor="end" transform="translate(143.17177914110428,7) rotate(270) translate(0,3)" style="font-family: sans-serif; font-size: 10px; fill: #000; opacity: 0;">1878-79</text><text text-anchor="end" transform="translate(149.30674846625766,7) rotate(270) translate(0,3)" style="font-family: sans-serif; font-size: 10px; fill: #000; opacity: 1;">1879-80</text><text text-anchor="end" transform="translate(155.44171779141104,7) rotate(270) translate(0,3)" style="font-family: sans-serif; font-size: 10px; fill: #000; opacity: 0;">1880-81</text><text text-anchor="end" transform="translate(161.57668711656441,7) rotate(270) translate(0,3)" style="font-family: sans-serif; font-size: 10px; fill: #000; opacity: 1;">1881-82</text><text text-anchor="end" transform="translate(167.7116564417178,7) rotate(270) translate(0,3)" style="font-family: sans-serif; font-size: 10px; fill: #000; opacity: 0;">1882-83</text><text text-anchor="end" transform="translate(173.84662576687114,7) rotate(270) translate(0,3)" style="font-family: sans-serif; font-size: 10px; fill: #000; opacity: 1;">1883-84</text><text text-anchor="end" transform="translate(179.98159509202452,7) rotate(270) translate(0,3)" style="font-family: sans-serif; font-size: 10px; fill: #000; opacity: 0;">1884-85</text><text text-anchor="end" transform="translate(186.1165644171779,7) rotate(270) translate(0,3)" style="font-family: sans-serif; font-size: 10px; fill: #000; opacity: 1;">1885-86</text><text text-anchor="end" transform="translate(192.25153374233128,7) rotate(270) translate(0,3)" style="font-family: sans-serif; font-size: 10px; fill: #000; opacity: 0;">1886-87</text><text text-anchor="end" transform="translate(198.38650306748465,7) rotate(270) translate(0,3)" style="font-family: sans-serif; font-size: 10px; fill: #000; opacity: 1;">1887-88</text><text text-anchor="end" transform="translate(204.52147239263803,7) rotate(270) translate(0,3)" style="font-family: sans-serif; font-size: 10px; fill: #000; opacity: 0;">1888-89</text><text text-anchor="end" transform="translate(210.6564417177914,7) rotate(270) translate(0,3)" style="font-family: sans-serif; font-size: 10px; fill: #000; opacity: 1;">1889-90</text><text text-anchor="end" transform="translate(216.7914110429448,7) rotate(270) translate(0,3)" style="font-family: sans-serif; font-size: 10px; fill: #000; opacity: 0;">1890-91</text><text text-anchor="end" transform="translate(222.92638036809817,7) rotate(270) translate(0,3)" style="font-family: sans-serif; font-size: 10px; fill: #000; opacity: 1;">1891-92</text><text text-anchor="end" transform="translate(229.06134969325151,7) rotate(270) translate(0,3)" style="font-family: sans-serif; font-size: 10px; fill: #000; opacity: 0;">1892-93</text><text text-anchor="end" transform="translate(235.1963190184049,7) rotate(270) translate(0,3)" style="font-family: sans-serif; font-size: 10px; fill: #000; opacity: 1;">1893-94</text><text text-anchor="end" transform="translate(241.33128834355827,7) rotate(270) translate(0,3)" style="font-family: sans-serif; font-size: 10px; fill: #000; opacity: 0;">1894-95</text><text text-anchor="end" transform="translate(247.46625766871165,7) rotate(270) translate(0,3)" style="font-family: sans-serif; font-size: 10px; fill: #000; opacity: 1;">1895-96</text><text text-anchor="end" transform="translate(253.60122699386503,7) rotate(270) translate(0,3)" style="font-family: sans-serif; font-size: 10px; fill: #000; opacity: 0;">1896-97</text><text text-anchor="end" transform="translate(259.7361963190184,7) rotate(270) translate(0,3)" style="font-family: sans-serif; font-size: 10px; fill: #000; opacity: 1;">1897-98</text><text text-anchor="end" transform="translate(265.8711656441718,7) rotate(270) translate(0,3)" style="font-family: sans-serif; font-size: 10px; fill: #000; opacity: 0;">1898-99</text><text text-anchor="end" transform="translate(272.00613496932516,7) rotate(270) translate(0,3)" style="font-family: sans-serif; font-size: 10px; fill: #000; opacity: 1;">1899-00</text><text text-anchor="end" transform="translate(278.14110429447857,7) rotate(270) translate(0,3)" style="font-family: sans-serif; font-size: 10px; fill: #000; opacity: 0;">1900-01</text><text text-anchor="end" transform="translate(284.2760736196319,7) rotate(270) translate(0,3)" style="font-family: sans-serif; font-size: 10px; fill: #000; opacity: 1;">1901-02</text><text text-anchor="end" transform="translate(290.4110429447853,7) rotate(270) translate(0,3)" style="font-family: sans-serif; font-size: 10px; fill: #000; opacity: 0;">1902-03</text><text text-anchor="end" transform="translate(296.5460122699387,7) rotate(270) translate(0,3)" style="font-family: sans-serif; font-size: 10px; fill: #000; opacity: 1;">1903-04</text><text text-anchor="end" transform="translate(302.680981595092,7) rotate(270) translate(0,3)" style="font-family: sans-serif; font-size: 10px; fill: #000; opacity: 0;">1904-05</text><text text-anchor="end" transform="translate(308.8159509202454,7) rotate(270) translate(0,3)" style="font-family: sans-serif; font-size: 10px; fill: #000; opacity: 1;">1905-06</text><text text-anchor="end" transform="translate(314.9509202453988,7) rotate(270) translate(0,3)" style="font-family: sans-serif; font-size: 10px; fill: #000; opacity: 0;">1906-07</text><text text-anchor="end" transform="translate(321.0858895705522,7) rotate(270) translate(0,3)" style="font-family: sans-serif; font-size: 10px; fill: #000; opacity: 1;">1907-08</text><text text-anchor="end" transform="translate(327.22085889570553,7) rotate(270) translate(0,3)" style="font-family: sans-serif; font-size: 10px; fill: #000; opacity: 0;">1908-09</text><text text-anchor="end" transform="translate(333.35582822085894,7) rotate(270) translate(0,3)" style="font-family: sans-serif; font-size: 10px; fill: #000; opacity: 1;">1909-10</text><text text-anchor="end" transform="translate(339.4907975460123,7) rotate(270) translate(0,3)" style="font-family: sans-serif; font-size: 10px; fill: #000; opacity: 0;">1910-11</text><text text-anchor="end" transform="translate(345.62576687116564,7) rotate(270) translate(0,3)" style="font-family: sans-serif; font-size: 10px; fill: #000; opacity: 1;">1911-12</text><text text-anchor="end" transform="translate(351.76073619631904,7) rotate(270) translate(0,3)" style="font-family: sans-serif; font-size: 10px; fill: #000; opacity: 0;">1912-13</text><text text-anchor="end" transform="translate(357.8957055214724,7) rotate(270) translate(0,3)" style="font-family: sans-serif; font-size: 10px; fill: #000; opacity: 1;">1913-14</text><text text-anchor="end" transform="translate(364.0306748466258,7) rotate(270) translate(0,3)" style="font-family: sans-serif; font-size: 10px; fill: #000; opacity: 0;">1914-15</text><text text-anchor="end" transform="translate(370.16564417177915,7) rotate(270) translate(0,3)" style="font-family: sans-serif; font-size: 10px; fill: #000; opacity: 1;">1915-16</text><text text-anchor="end" transform="translate(376.30061349693256,7) rotate(270) translate(0,3)" style="font-family: sans-serif; font-size: 10px; fill: #000; opacity: 0;">1916-17</text><text text-anchor="end" transform="translate(382.4355828220859,7) rotate(270) translate(0,3)" style="font-family: sans-serif; font-size: 10px; fill: #000; opacity: 1;">1917-18</text><text text-anchor="end" transform="translate(388.5705521472393,7) rotate(270) translate(0,3)" style="font-family: sans-serif; font-size: 10px; fill: #000; opacity: 0;">1918-19</text><text text-anchor="end" transform="translate(394.70552147239266,7) rotate(270) translate(0,3)" style="font-family: sans-serif; font-size: 10px; fill: #000; opacity: 1;">1919-20</text><text text-anchor="end" transform="translate(400.840490797546,7) rotate(270) translate(0,3)" style="font-family: sans-serif; font-size: 10px; fill: #000; opacity: 0;">1920-21</text><text text-anchor="end" transform="translate(406.9754601226994,7) rotate(270) translate(0,3)" style="font-family: sans-serif; font-size: 10px; fill: #000; opacity: 1;">1921-22</text><text text-anchor="end" transform="translate(413.11042944785277,7) rotate(270) translate(0,3)" style="font-family: sans-serif; font-size: 10px; fill: #000; opacity: 0;">1922-23</text><text text-anchor="end" transform="translate(419.2453987730062,7) rotate(270) translate(0,3)" style="font-family: sans-serif; font-size: 10px; fill: #000; opacity: 1;">1923-24</text><text text-anchor="end" transform="translate(425.3803680981595,7) rotate(270) translate(0,3)" style="font-family: sans-serif; font-size: 10px; fill: #000; opacity: 0;">1924-25</text><text text-anchor="end" transform="translate(431.51533742331293,7) rotate(270) translate(0,3)" style="font-family: sans-serif; font-size: 10px; fill: #000; opacity: 1;">1925-26</text><text text-anchor="end" transform="translate(437.6503067484663,7) rotate(270) translate(0,3)" style="font-family: sans-serif; font-size: 10px; fill: #000; opacity: 0;">1926-27</text><text text-anchor="end" transform="translate(443.7852760736197,7) rotate(270) translate(0,3)" style="font-family: sans-serif; font-size: 10px; fill: #000; opacity: 1;">1927-28</text><text text-anchor="end" transform="translate(449.92024539877303,7) rotate(270) translate(0,3)" style="font-family: sans-serif; font-size: 10px; fill: #000; opacity: 0;">1928-29</text><text text-anchor="end" transform="translate(456.0552147239264,7) rotate(270) translate(0,3)" style="font-family: sans-serif; font-size: 10px; fill: #000; opacity: 1;">1929-30</text><text text-anchor="end" transform="translate(462.1901840490798,7) rotate(270) translate(0,3)" style="font-family: sans-serif; font-size: 10px; fill: #000; opacity: 0;">1930-31</text><text text-anchor="end" transform="translate(468.32515337423314,7) rotate(270) translate(0,3)" style="font-family: sans-serif; font-size: 10px; fill: #000; opacity: 1;">1931-32</text><text text-anchor="end" transform="translate(474.46012269938655,7) rotate(270) translate(0,3)" style="font-family: sans-serif; font-size: 10px; fill: #000; opacity: 0;">1932-33</text><text text-anchor="end" transform="translate(480.5950920245399,7) rotate(270) translate(0,3)" style="font-family: sans-serif; font-size: 10px; fill: #000; opacity: 1;">1933-34</text><text text-anchor="end" transform="translate(486.7300613496933,7) rotate(270) translate(0,3)" style="font-family: sans-serif; font-size: 10px; fill: #000; opacity: 0;">1934-35</text><text text-anchor="end" transform="translate(492.86503067484665,7) rotate(270) translate(0,3)" style="font-family: sans-serif; font-size: 10px; fill: #000; opacity: 1;">1935-36</text><text text-anchor="end" transform="translate(499,7) rotate(270) translate(0,3)" style="font-family: sans-serif; font-size: 10px; fill: #000; opacity: 0;">1936-37</text><text text-anchor="end" transform="translate(505.1349693251534,7) rotate(270) translate(0,3)" style="font-family: sans-serif; font-size: 10px; fill: #000; opacity: 1;">1937-38</text><text text-anchor="end" transform="translate(511.2699386503067,7) rotate(270) translate(0,3)" style="font-family: sans-serif; font-size: 10px; fill: #000; opacity: 0;">1938-39</text><text text-anchor="end" transform="translate(517.4049079754601,7) rotate(270) translate(0,3)" style="font-family: sans-serif; font-size: 10px; fill: #000; opacity: 1;">1939-40</text><text text-anchor="end" transform="translate(523.5398773006135,7) rotate(270) translate(0,3)" style="font-family: sans-serif; font-size: 10px; fill: #000; opacity: 0;">1940-41</text><text text-anchor="end" transform="translate(529.6748466257669,7) rotate(270) translate(0,3)" style="font-family: sans-serif; font-size: 10px; fill: #000; opacity: 1;">1941-42</text><text text-anchor="end" transform="translate(535.8098159509203,7) rotate(270) translate(0,3)" style="font-family: sans-serif; font-size: 10px; fill: #000; opacity: 0;">1942-43</text><text text-anchor="end" transform="translate(541.9447852760736,7) rotate(270) translate(0,3)" style="font-family: sans-serif; font-size: 10px; fill: #000; opacity: 1;">1943-44</text><text text-anchor="end" transform="translate(548.079754601227,7) rotate(270) translate(0,3)" style="font-family: sans-serif; font-size: 10px; fill: #000; opacity: 0;">1944-45</text><text text-anchor="end" transform="translate(554.2147239263804,7) rotate(270) translate(0,3)" style="font-family: sans-serif; font-size: 10px; fill: #000; opacity: 1;">1945-46</text><text text-anchor="end" transform="translate(560.3496932515337,7) rotate(270) translate(0,3)" style="font-family: sans-serif; font-size: 10px; fill: #000; opacity: 0;">1946-47</text><text text-anchor="end" transform="translate(566.4846625766871,7) rotate(270) translate(0,3)" style="font-family: sans-serif; font-size: 10px; fill: #000; opacity: 1;">1947-48</text><text text-anchor="end" transform="translate(572.6196319018405,7) rotate(270) translate(0,3)" style="font-family: sans-serif; font-size: 10px; fill: #000; opacity: 0;">1948-49</text><text text-anchor="end" transform="translate(578.7546012269939,7) rotate(270) translate(0,3)" style="font-family: sans-serif; font-size: 10px; fill: #000; opacity: 1;">1949-50</text><text text-anchor="end" transform="translate(584.8895705521472,7) rotate(270) translate(0,3)" style="font-family: sans-serif; font-size: 10px; fill: #000; opacity: 0;">1950-51</text><text text-anchor="end" transform="translate(591.0245398773006,7) rotate(270) translate(0,3)" style="font-family: sans-serif; font-size: 10px; fill: #000; opacity: 1;">1951-52</text><text text-anchor="end" transform="translate(597.159509202454,7) rotate(270) translate(0,3)" style="font-family: sans-serif; font-size: 10px; fill: #000; opacity: 0;">1952-53</text><text text-anchor="end" transform="translate(603.2944785276073,7) rotate(270) translate(0,3)" style="font-family: sans-serif; font-size: 10px; fill: #000; opacity: 1;">1953-54</text><text text-anchor="end" transform="translate(609.4294478527607,7) rotate(270) translate(0,3)" style="font-family: sans-serif; font-size: 10px; fill: #000; opacity: 0;">1954-55</text><text text-anchor="end" transform="translate(615.5644171779142,7) rotate(270) translate(0,3)" style="font-family: sans-serif; font-size: 10px; fill: #000; opacity: 1;">1955-56</text><text text-anchor="end" transform="translate(621.6993865030676,7) rotate(270) translate(0,3)" style="font-family: sans-serif; font-size: 10px; fill: #000; opacity: 0;">1956-57</text><text text-anchor="end" transform="translate(627.8343558282209,7) rotate(270) translate(0,3)" style="font-family: sans-serif; font-size: 10px; fill: #000; opacity: 1;">1957-58</text><text text-anchor="end" transform="translate(633.9693251533743,7) rotate(270) translate(0,3)" style="font-family: sans-serif; font-size: 10px; fill: #000; opacity: 0;">1958-59</text><text text-anchor="end" transform="translate(640.1042944785277,7) rotate(270) translate(0,3)" style="font-family: sans-serif; font-size: 10px; fill: #000; opacity: 1;">1959-60</text><text text-anchor="end" transform="translate(646.239263803681,7) rotate(270) translate(0,3)" style="font-family: sans-serif; font-size: 10px; fill: #000; opacity: 0;">1960-61</text><text text-anchor="end" transform="translate(652.3742331288344,7) rotate(270) translate(0,3)" style="font-family: sans-serif; font-size: 10px; fill: #000; opacity: 1;">1961-62</text><text text-anchor="end" transform="translate(658.5092024539878,7) rotate(270) translate(0,3)" style="font-family: sans-serif; font-size: 10px; fill: #000; opacity: 0;">1962-63</text><text text-anchor="end" transform="translate(664.6441717791412,7) rotate(270) translate(0,3)" style="font-family: sans-serif; font-size: 10px; fill: #000; opacity: 1;">1963-64</text><text text-anchor="end" transform="translate(670.7791411042945,7) rotate(270) translate(0,3)" style="font-family: sans-serif; font-size: 10px; fill: #000; opacity: 0;">1964-65</text><text text-anchor="end" transform="translate(676.9141104294479,7) rotate(270) translate(0,3)" style="font-family: sans-serif; font-size: 10px; fill: #000; opacity: 1;">1965-66</text><text text-anchor="end" transform="translate(683.0490797546013,7) rotate(270) translate(0,3)" style="font-family: sans-serif; font-size: 10px; fill: #000; opacity: 0;">1966-67</text><text text-anchor="end" transform="translate(689.1840490797546,7) rotate(270) translate(0,3)" style="font-family: sans-serif; font-size: 10px; fill: #000; opacity: 1;">1967-68</text><text text-anchor="end" transform="translate(695.319018404908,7) rotate(270) translate(0,3)" style="font-family: sans-serif; font-size: 10px; fill: #000; opacity: 0;">1968-69</text><text text-anchor="end" transform="translate(701.4539877300614,7) rotate(270) translate(0,3)" style="font-family: sans-serif; font-size: 10px; fill: #000; opacity: 1;">1969-70</text><text text-anchor="end" transform="translate(707.5889570552148,7) rotate(270) translate(0,3)" style="font-family: sans-serif; font-size: 10px; fill: #000; opacity: 0;">1970-71</text><text text-anchor="end" transform="translate(713.7239263803681,7) rotate(270) translate(0,3)" style="font-family: sans-serif; font-size: 10px; fill: #000; opacity: 1;">1971-72</text><text text-anchor="end" transform="translate(719.8588957055215,7) rotate(270) translate(0,3)" style="font-family: sans-serif; font-size: 10px; fill: #000; opacity: 0;">1972-73</text><text text-anchor="end" transform="translate(725.9938650306749,7) rotate(270) translate(0,3)" style="font-family: sans-serif; font-size: 10px; fill: #000; opacity: 1;">1973-74</text><text text-anchor="end" transform="translate(732.1288343558283,7) rotate(270) translate(0,3)" style="font-family: sans-serif; font-size: 10px; fill: #000; opacity: 0;">1974-75</text><text text-anchor="end" transform="translate(738.2638036809816,7) rotate(270) translate(0,3)" style="font-family: sans-serif; font-size: 10px; fill: #000; opacity: 1;">1975-76</text><text text-anchor="end" transform="translate(744.398773006135,7) rotate(270) translate(0,3)" style="font-family: sans-serif; font-size: 10px; fill: #000; opacity: 0;">1976-77</text><text text-anchor="end" transform="translate(750.5337423312884,7) rotate(270) translate(0,3)" style="font-family: sans-serif; font-size: 10px; fill: #000; opacity: 1;">1977-78</text><text text-anchor="end" transform="translate(756.6687116564417,7) rotate(270) translate(0,3)" style="font-family: sans-serif; font-size: 10px; fill: #000; opacity: 0;">1978-79</text><text text-anchor="end" transform="translate(762.8036809815951,7) rotate(270) translate(0,3)" style="font-family: sans-serif; font-size: 10px; fill: #000; opacity: 1;">1979-80</text><text text-anchor="end" transform="translate(768.9386503067485,7) rotate(270) translate(0,3)" style="font-family: sans-serif; font-size: 10px; fill: #000; opacity: 0;">1980-81</text><text text-anchor="end" transform="translate(775.0736196319019,7) rotate(270) translate(0,3)" style="font-family: sans-serif; font-size: 10px; fill: #000; opacity: 1;">1981-82</text><text text-anchor="end" transform="translate(781.2085889570552,7) rotate(270) translate(0,3)" style="font-family: sans-serif; font-size: 10px; fill: #000; opacity: 0;">1982-83</text><text text-anchor="end" transform="translate(787.3435582822086,7) rotate(270) translate(0,3)" style="font-family: sans-serif; font-size: 10px; fill: #000; opacity: 1;">1983-84</text><text text-anchor="end" transform="translate(793.478527607362,7) rotate(270) translate(0,3)" style="font-family: sans-serif; font-size: 10px; fill: #000; opacity: 0;">1984-85</text><text text-anchor="end" transform="translate(799.6134969325153,7) rotate(270) translate(0,3)" style="font-family: sans-serif; font-size: 10px; fill: #000; opacity: 1;">1985-86</text><text text-anchor="end" transform="translate(805.7484662576687,7) rotate(270) translate(0,3)" style="font-family: sans-serif; font-size: 10px; fill: #000; opacity: 0;">1986-87</text><text text-anchor="end" transform="translate(811.8834355828221,7) rotate(270) translate(0,3)" style="font-family: sans-serif; font-size: 10px; fill: #000; opacity: 1;">1987-88</text><text text-anchor="end" transform="translate(818.0184049079755,7) rotate(270) translate(0,3)" style="font-family: sans-serif; font-size: 10px; fill: #000; opacity: 0;">1988-89</text><text text-anchor="end" transform="translate(824.1533742331288,7) rotate(270) translate(0,3)" style="font-family: sans-serif; font-size: 10px; fill: #000; opacity: 1;">1989-90</text><text text-anchor="end" transform="translate(830.2883435582822,7) rotate(270) translate(0,3)" style="font-family: sans-serif; font-size: 10px; fill: #000; opacity: 0;">1990-91</text><text text-anchor="end" transform="translate(836.4233128834356,7) rotate(270) translate(0,3)" style="font-family: sans-serif; font-size: 10px; fill: #000; opacity: 1;">1991-92</text><text text-anchor="end" transform="translate(842.5582822085889,7) rotate(270) translate(0,3)" style="font-family: sans-serif; font-size: 10px; fill: #000; opacity: 0;">1992-93</text><text text-anchor="end" transform="translate(848.6932515337423,7) rotate(270) translate(0,3)" style="font-family: sans-serif; font-size: 10px; fill: #000; opacity: 1;">1993-94</text><text text-anchor="end" transform="translate(854.8282208588957,7) rotate(270) translate(0,3)" style="font-family: sans-serif; font-size: 10px; fill: #000; opacity: 0;">1994-95</text><text text-anchor="end" transform="translate(860.9631901840492,7) rotate(270) translate(0,3)" style="font-family: sans-serif; font-size: 10px; fill: #000; opacity: 1;">1995-96</text><text text-anchor="end" transform="translate(867.0981595092024,7) rotate(270) translate(0,3)" style="font-family: sans-serif; font-size: 10px; fill: #000; opacity: 0;">1996-97</text><text text-anchor="end" transform="translate(873.2331288343559,7) rotate(270) translate(0,3)" style="font-family: sans-serif; font-size: 10px; fill: #000; opacity: 1;">1997-98</text><text text-anchor="end" transform="translate(879.3680981595093,7) rotate(270) translate(0,3)" style="font-family: sans-serif; font-size: 10px; fill: #000; opacity: 0;">1998-99</text><text text-anchor="end" transform="translate(885.5030674846627,7) rotate(270) translate(0,3)" style="font-family: sans-serif; font-size: 10px; fill: #000; opacity: 1;">1999-00</text><text text-anchor="end" transform="translate(891.638036809816,7) rotate(270) translate(0,3)" style="font-family: sans-serif; font-size: 10px; fill: #000; opacity: 0;">2000-01</text><text text-anchor="end" transform="translate(897.7730061349694,7) rotate(270) translate(0,3)" style="font-family: sans-serif; font-size: 10px; fill: #000; opacity: 1;">2001-02</text><text text-anchor="end" transform="translate(903.9079754601228,7) rotate(270) translate(0,3)" style="font-family: sans-serif; font-size: 10px; fill: #000; opacity: 0;">2002-03</text><text text-anchor="end" transform="translate(910.0429447852761,7) rotate(270) translate(0,3)" style="font-family: sans-serif; font-size: 10px; fill: #000; opacity: 1;">2003-04</text><text text-anchor="end" transform="translate(916.1779141104295,7) rotate(270) translate(0,3)" style="font-family: sans-serif; font-size: 10px; fill: #000; opacity: 0;">2004-05</text><text text-anchor="end" transform="translate(922.3128834355829,7) rotate(270) translate(0,3)" style="font-family: sans-serif; font-size: 10px; fill: #000; opacity: 1;">2005-06</text><text text-anchor="end" transform="translate(928.4478527607363,7) rotate(270) translate(0,3)" style="font-family: sans-serif; font-size: 10px; fill: #000; opacity: 0;">2006-07</text><text text-anchor="end" transform="translate(934.5828220858896,7) rotate(270) translate(0,3)" style="font-family: sans-serif; font-size: 10px; fill: #000; opacity: 1;">2007-08</text><text text-anchor="end" transform="translate(940.717791411043,7) rotate(270) translate(0,3)" style="font-family: sans-serif; font-size: 10px; fill: #000; opacity: 0;">2008-09</text><text text-anchor="end" transform="translate(946.8527607361964,7) rotate(270) translate(0,3)" style="font-family: sans-serif; font-size: 10px; fill: #000; opacity: 1;">2009-10</text><text text-anchor="end" transform="translate(952.9877300613497,7) rotate(270) translate(0,3)" style="font-family: sans-serif; font-size: 10px; fill: #000; opacity: 0;">2010-11</text><text text-anchor="end" transform="translate(959.1226993865031,7) rotate(270) translate(0,3)" style="font-family: sans-serif; font-size: 10px; fill: #000; opacity: 1;">2011-12</text><text text-anchor="end" transform="translate(965.2576687116565,7) rotate(270) translate(0,3)" style="font-family: sans-serif; font-size: 10px; fill: #000; opacity: 0;">2012-13</text><text text-anchor="end" transform="translate(971.3926380368099,7) rotate(270) translate(0,3)" style="font-family: sans-serif; font-size: 10px; fill: #000; opacity: 1;">2013-14</text><text text-anchor="end" transform="translate(977.5276073619632,7) rotate(270) translate(0,3)" style="font-family: sans-serif; font-size: 10px; fill: #000; opacity: 0;">2014-15</text><text text-anchor="end" transform="translate(983.6625766871166,7) rotate(270) translate(0,3)" style="font-family: sans-serif; font-size: 10px; fill: #000; opacity: 1;">2015-16</text><text text-anchor="end" transform="translate(989.79754601227,7) rotate(270) translate(0,3)" style="font-family: sans-serif; font-size: 10px; fill: #000; opacity: 0;">2016-17</text><text text-anchor="end" transform="translate(995.9325153374233,7) rotate(270) translate(0,3)" style="font-family: sans-serif; font-size: 10px; fill: #000; opacity: 1;">2017-18</text></g><g class="mark-rule role-axis-domain" style="pointer-events: none;"><line transform="translate(0,0)" x2="1000" y2="0" style="fill: none; stroke: #888; stroke-width: 1; opacity: 1;"></line></g><g class="mark-text role-axis-title" style="pointer-events: none;"><text text-anchor="middle" transform="translate(500,57.69921875000001)" style="font-family: sans-serif; font-size: 11px; font-weight: bold; fill: #000; opacity: 1;">Winter</text></g></g></g></g><g class="mark-group role-axis"><g transform="translate(0.5,0.5)"><path class="background" d="M0,0h0v0h0Z" style="pointer-events: none; fill: none;"></path><g><g class="mark-rule role-axis-tick" style="pointer-events: none;"><line transform="translate(0,285)" x2="-5" y2="0" style="fill: none; stroke: #888; stroke-width: 1; opacity: 1;"></line><line transform="translate(0,229)" x2="-5" y2="0" style="fill: none; stroke: #888; stroke-width: 1; opacity: 1;"></line><line transform="translate(0,172)" x2="-5" y2="0" style="fill: none; stroke: #888; stroke-width: 1; opacity: 1;"></line><line transform="translate(0,121)" x2="-5" y2="0" style="fill: none; stroke: #888; stroke-width: 1; opacity: 1;"></line><line transform="translate(0,64)" x2="-5" y2="0" style="fill: none; stroke: #888; stroke-width: 1; opacity: 1;"></line><line transform="translate(0,9)" x2="-5" y2="0" style="fill: none; stroke: #888; stroke-width: 1; opacity: 1;"></line></g><g class="mark-text role-axis-label" style="pointer-events: none;"><text text-anchor="end" transform="translate(-7,288.36213468869124)" style="font-family: sans-serif; font-size: 10px; fill: #000; opacity: 1;">December</text><text text-anchor="end" transform="translate(-7,231.64040660736975)" style="font-family: sans-serif; font-size: 10px; fill: #000; opacity: 1;">January</text><text text-anchor="end" transform="translate(-7,174.9186785260483)" style="font-family: sans-serif; font-size: 10px; fill: #000; opacity: 1;">February</text><text text-anchor="end" transform="translate(-7,123.68614993646761)" style="font-family: sans-serif; font-size: 10px; fill: #000; opacity: 1;">March</text><text text-anchor="end" transform="translate(-7,66.96442185514613)" style="font-family: sans-serif; font-size: 10px; fill: #000; opacity: 1;">April</text><text text-anchor="end" transform="translate(-7,12.14866581956801)" style="font-family: sans-serif; font-size: 10px; fill: #000; opacity: 1;">May</text></g><g class="mark-rule role-axis-domain" style="pointer-events: none;"><line transform="translate(0,300)" x2="0" y2="-300" style="fill: none; stroke: #888; stroke-width: 1; opacity: 1;"></line></g><g class="mark-text role-axis-title" style="pointer-events: none;"><text text-anchor="middle" transform="translate(-58.1279296875,150) rotate(-90) translate(0,-2)" style="font-family: sans-serif; font-size: 11px; font-weight: bold; fill: #000; opacity: 1;">Days Closed</text></g></g></g></g><g class="mark-group role-axis"><g transform="translate(1000.5,0.5)"><path class="background" d="M0,0h0v0h0Z" style="pointer-events: none; fill: none;"></path><g><g class="mark-rule role-axis-tick" style="pointer-events: none;"><line transform="translate(0,300)" x2="5" y2="0" style="fill: none; stroke: #888; stroke-width: 1; opacity: 1;"></line><line transform="translate(0,267)" x2="5" y2="0" style="fill: none; stroke: #888; stroke-width: 1; opacity: 1;"></line><line transform="translate(0,233)" x2="5" y2="0" style="fill: none; stroke: #888; stroke-width: 1; opacity: 1;"></line><line transform="translate(0,200)" x2="5" y2="0" style="fill: none; stroke: #888; stroke-width: 1; opacity: 1;"></line><line transform="translate(0,167)" x2="5" y2="0" style="fill: none; stroke: #888; stroke-width: 1; opacity: 1;"></line><line transform="translate(0,133)" x2="5" y2="0" style="fill: none; stroke: #888; stroke-width: 1; opacity: 1;"></line><line transform="translate(0,100)" x2="5" y2="0" style="fill: none; stroke: #888; stroke-width: 1; opacity: 1;"></line><line transform="translate(0,67)" x2="5" y2="0" style="fill: none; stroke: #888; stroke-width: 1; opacity: 1;"></line><line transform="translate(0,33)" x2="5" y2="0" style="fill: none; stroke: #888; stroke-width: 1; opacity: 1;"></line><line transform="translate(0,0)" x2="5" y2="0" style="fill: none; stroke: #888; stroke-width: 1; opacity: 1;"></line></g><g class="mark-text role-axis-label" style="pointer-events: none;"><text text-anchor="start" transform="translate(7,303)" style="font-family: sans-serif; font-size: 10px; fill: #000; opacity: 1;">0</text><text text-anchor="start" transform="translate(7,269.6666666666667)" style="font-family: sans-serif; font-size: 10px; fill: #000; opacity: 1;">20</text><text text-anchor="start" transform="translate(7,236.33333333333334)" style="font-family: sans-serif; font-size: 10px; fill: #000; opacity: 1;">40</text><text text-anchor="start" transform="translate(7,203)" style="font-family: sans-serif; font-size: 10px; fill: #000; opacity: 1;">60</text><text text-anchor="start" transform="translate(7,169.66666666666669)" style="font-family: sans-serif; font-size: 10px; fill: #000; opacity: 1;">80</text><text text-anchor="start" transform="translate(7,136.33333333333331)" style="font-family: sans-serif; font-size: 10px; fill: #000; opacity: 1;">100</text><text text-anchor="start" transform="translate(7,103)" style="font-family: sans-serif; font-size: 10px; fill: #000; opacity: 1;">120</text><text text-anchor="start" transform="translate(7,69.66666666666666)" style="font-family: sans-serif; font-size: 10px; fill: #000; opacity: 1;">140</text><text text-anchor="start" transform="translate(7,36.33333333333337)" style="font-family: sans-serif; font-size: 10px; fill: #000; opacity: 1;">160</text><text text-anchor="start" transform="translate(7,3)" style="font-family: sans-serif; font-size: 10px; fill: #000; opacity: 1;">180</text></g><g class="mark-rule role-axis-domain" style="pointer-events: none;"><line transform="translate(0,300)" x2="0" y2="-300" style="fill: none; stroke: #888; stroke-width: 1; opacity: 1;"></line></g><g class="mark-text role-axis-title" style="pointer-events: none;"><text text-anchor="middle" transform="translate(34,150) rotate(90) translate(0,-2)" style="font-family: sans-serif; font-size: 11px; font-weight: bold; fill: #000; opacity: 1;"># Days Closed</text></g></g></g></g></g></g></g></g></svg>